<?xml version="1.0" encoding="UTF-8"?>
<svg version="1.1" xmlns="http://www.w3.org/2000/svg" width="512" height="512">
<path d="M0 0 C1.61104785 -0.09463961 1.61104785 -0.09463961 3.25464213 -0.19119114 C6.86356098 -0.39857633 10.47307595 -0.59108617 14.08291626 -0.78172302 C15.34763071 -0.85104727 16.61234516 -0.92037151 17.91538429 -0.99179649 C42.36652167 -2.32389143 66.82985307 -3.15789753 91.30856242 -3.78417549 C95.34362286 -3.88758604 99.37857887 -3.9946443 103.41348267 -4.10398865 C104.21623444 -4.12567865 105.01898622 -4.14736866 105.84606381 -4.16971593 C117.07072706 -4.48109157 128.26754737 -5.00297512 139.47458649 -5.70061734 C265.45470186 -13.53004207 265.45470186 -13.53004207 312.97027016 26.67300224 C349.33784813 59.14976554 358.16589474 97.82663005 361.00008774 144.91927814 C363.32274695 187.45822861 361.73071147 230.09988186 359.96078944 272.62699872 C359.2817181 289.1403588 358.83828095 305.64847168 358.54898071 322.17311096 C358.52838538 323.34593761 358.50779005 324.51876426 358.48657062 325.72713111 C358.40458633 330.44402537 358.32415033 335.16094254 358.24572347 339.87789731 C357.6322116 376.75188836 356.78437659 413.61734847 355.4056946 450.47112679 C355.30394275 453.25361454 355.20891176 456.03625488 355.11585999 458.81904602 C354.97121122 463.11353001 354.80794507 467.40689149 354.62925909 471.70009066 C354.56730867 473.24989758 354.51124426 474.7999537 354.46175679 476.35020863 C354.19471564 484.54122357 353.66139801 491.60495107 349.46817017 498.82594299 C348.91129517 499.87781799 348.35442017 500.92969299 347.78067017 502.01344299 C343.52862259 507.18485221 337.77940887 510.66057203 331.46817017 512.82594299 C328.66577035 513.08009332 328.66577035 513.08009332 325.5397234 513.08600521 C324.34461386 513.0930708 323.14950431 513.10013639 321.91817933 513.10741609 C320.60886042 513.10500101 319.29954151 513.10258592 317.95054626 513.10009766 C316.5426733 513.10455069 315.13480283 513.10986495 313.72693604 513.11596638 C309.85818136 513.13014921 305.989507 513.13180962 302.12073004 513.13136947 C297.94810996 513.13301744 293.775523 513.14608365 289.60292053 513.15756226 C280.47886969 513.18041348 271.35484211 513.18833308 262.23076653 513.1933887 C256.53281511 513.19664574 250.83487044 513.20316828 245.13692284 513.21039009 C229.35856627 513.22995659 213.58021598 513.24636037 197.8018465 513.24926662 C196.79211468 513.24945419 195.78238286 513.24964176 194.7420531 513.24983502 C192.69510567 513.25020127 190.64815824 513.25056497 188.60121081 513.25092613 C187.58511257 513.25110894 186.56901434 513.25129175 185.52212524 513.2514801 C183.99611578 513.25175093 183.99611578 513.25175093 182.43927785 513.25202722 C165.95665025 513.25556847 149.47415333 513.28258753 132.99157105 513.31997799 C116.06603172 513.35806577 99.14055724 513.37742414 82.21497411 513.37772614 C72.71313408 513.37831062 63.21144993 513.38679665 53.70965004 513.4157238 C45.61822128 513.44024403 37.52700523 513.44751629 29.43554936 513.43247627 C25.30865205 513.42530983 21.18217471 513.42615299 17.05532455 513.44888687 C13.27310339 513.46952224 9.49162386 513.46683483 5.70941033 513.44601203 C3.70187287 513.44088125 1.69431827 513.46026173 -0.31312197 513.48067373 C-9.57887989 513.39486371 -16.2151755 511.47111776 -23.34432983 505.45094299 C-29.6702968 497.85978263 -32.84660127 492.03693467 -32.78909874 481.83510113 C-32.79260481 481.04409229 -32.79611089 480.25308346 -32.79972321 479.43810466 C-32.80903901 476.7832717 -32.80411342 474.12865801 -32.79925537 471.47381592 C-32.80299153 469.55289303 -32.80759292 467.63197167 -32.81298602 465.71105272 C-32.82523554 460.42883354 -32.82495325 455.14667761 -32.82259727 449.86444747 C-32.82218959 444.1690211 -32.83322347 438.47361514 -32.8427124 432.77819824 C-32.85933391 421.61856928 -32.86482246 410.45896144 -32.86593716 399.29932114 C-32.86688705 390.22964805 -32.87099442 381.15998193 -32.87733841 372.09031105 C-32.89208674 350.56783976 -32.90438781 329.04537534 -32.90334129 307.52289867 C-32.90331014 306.83460885 -32.90327898 306.14631904 -32.90324688 305.43717195 C-32.90308066 301.94863661 -32.90288258 298.46010127 -32.90267746 294.97156592 C-32.90263757 294.27873086 -32.90259768 293.58589579 -32.90255658 292.87206571 C-32.90247571 291.47098442 -32.90239211 290.06990312 -32.9023058 288.66882182 C-32.90108027 266.86985051 -32.91609393 245.07094142 -32.94345093 223.27198792 C-32.97417409 198.78067464 -32.99135795 174.28940938 -32.98952448 149.79807454 C-32.98886006 136.83049495 -32.99437534 123.86298552 -33.01588058 110.89542198 C-33.0340718 99.85533466 -33.0384566 88.8153493 -33.02486174 77.7752535 C-33.01832183 72.14175916 -33.01825196 66.50846058 -33.03556824 60.87498474 C-33.05125846 55.71750442 -33.04847663 50.56037573 -33.03099997 45.40290419 C-33.02792117 43.5375237 -33.0315955 41.67211723 -33.04272012 39.80676737 C-33.14112352 22.13583508 -33.14112352 22.13583508 -28.53182983 14.82594299 C-27.97495483 13.77406799 -27.41807983 12.72219299 -26.84432983 11.63844299 C-19.68294104 2.92864581 -10.76601339 0.57395413 0 0 Z M266.46817017 16.82594299 C266.36611257 23.33622226 266.29643078 29.84629254 266.2484436 36.35719299 C266.2284227 38.56853444 266.20119757 40.77982358 266.16641235 42.99098206 C266.1174739 46.18349677 266.09510549 49.37530695 266.07754517 52.56813049 C266.05690002 53.54458527 266.03625488 54.52104004 266.01498413 55.52708435 C266.01190841 65.09881529 268.8017016 73.02616336 275.40176392 80.06813049 C281.31194255 85.09569266 288.41030041 87.96071736 296.14492798 87.93946838 C297.52590668 87.93935509 297.52590668 87.93935509 298.93478394 87.9392395 C299.92033264 87.93407822 300.90588135 87.92891693 301.92129517 87.92359924 C303.44433258 87.92147682 303.44433258 87.92147682 304.99813843 87.91931152 C308.23817909 87.91371815 311.47815042 87.90116684 314.71817017 87.88844299 C316.91608583 87.88342714 319.11400259 87.87886438 321.31192017 87.87477112 C326.69736123 87.86375089 332.08275855 87.84661743 337.46817017 87.82594299 C333.48467469 83.05425825 329.32989866 78.54278831 324.92788696 74.15626526 C324.30438858 73.53101456 323.6808902 72.90576385 323.03849792 72.26156616 C321.00061678 70.21932406 318.95914833 68.18071342 316.91738892 66.14234924 C315.49331801 64.71760415 314.06939552 63.29271069 312.64561462 61.86767578 C309.67426975 58.8948622 306.70113728 55.92385132 303.72671509 52.95411682 C299.90538457 49.13851436 296.08860269 45.31839816 292.27311993 41.4969492 C289.3402555 38.56048337 286.40502862 35.62638837 283.46906471 32.69302177 C282.05964469 31.28427058 280.65097192 29.87477136 279.24304771 28.46452522 C277.28492659 26.50388115 275.32365775 24.54644282 273.36148071 22.58985901 C272.77605499 22.00240906 272.19062927 21.41495911 271.58746338 20.80970764 C269.38841548 18.0817936 269.38841548 18.0817936 266.46817017 16.82594299 Z M25.46817017 344.82594299 C25.46817017 380.13594299 25.46817017 415.44594299 25.46817017 451.82594299 C33.05817017 451.82594299 40.64817017 451.82594299 48.46817017 451.82594299 C48.46817017 441.92594299 48.46817017 432.02594299 48.46817017 421.82594299 C54.65567017 421.94969299 54.65567017 421.94969299 60.96817017 422.07594299 C75.3497686 422.17074588 89.85466782 421.44855922 101.46817017 411.82594299 C110.51348137 402.35633148 111.87073914 391.67813367 111.68301392 379.06813049 C111.33144605 369.15872074 107.53115177 360.39992568 100.28067017 353.57594299 C80.8459092 338.09544075 44.15735929 344.82594299 25.46817017 344.82594299 Z M121.46817017 344.82594299 C121.46817017 380.13594299 121.46817017 415.44594299 121.46817017 451.82594299 C167.22723146 454.9405528 167.22723146 454.9405528 207.43692017 436.24000549 C219.05518465 422.43214501 221.82505205 406.39675573 220.46817017 388.82594299 C218.67268429 374.83611553 212.55277909 363.63063235 201.46817017 354.82594299 C177.61885296 339.51277801 148.73660382 344.82594299 121.46817017 344.82594299 Z M233.46817017 344.82594299 C233.46817017 380.13594299 233.46817017 415.44594299 233.46817017 451.82594299 C241.05817017 451.82594299 248.64817017 451.82594299 256.46817017 451.82594299 C256.46817017 437.96594299 256.46817017 424.10594299 256.46817017 409.82594299 C272.30817017 409.82594299 288.14817017 409.82594299 304.46817017 409.82594299 C304.46817017 403.22594299 304.46817017 396.62594299 304.46817017 389.82594299 C288.62817017 389.82594299 272.78817017 389.82594299 256.46817017 389.82594299 C256.46817017 381.57594299 256.46817017 373.32594299 256.46817017 364.82594299 C273.29817017 364.82594299 290.12817017 364.82594299 307.46817017 364.82594299 C307.46817017 358.22594299 307.46817017 351.62594299 307.46817017 344.82594299 C283.04817017 344.82594299 258.62817017 344.82594299 233.46817017 344.82594299 Z " fill="#9E0000" transform="translate(95.53182983398438,-0.8259429931640625)"/>
<path d="M0 0 C34.94831461 0 34.94831461 0 45 9 C51.69856401 17.20533147 53.52407903 26.92909242 52.75390625 37.3203125 C51.35651662 47.98004578 48.67321301 54.33583009 40.37890625 61.3046875 C28.54179185 69.74033224 13.91737888 67 0 67 C0 44.89 0 22.78 0 0 Z " fill="#9E0000" transform="translate(240,364)"/>
<path d="M0 0 C3.96 -0.061875 7.92 -0.12375 12 -0.1875 C13.23234375 -0.21481201 14.4646875 -0.24212402 15.734375 -0.27026367 C23.20945753 -0.32654465 29.3045424 0.08253347 35.375 4.875 C39.63047599 10.43985322 39.60341695 16.26812966 39 23 C38.10948406 27.18820779 36.72141756 30.25908467 33.6875 33.375 C28.87531611 36.28469258 24.53425432 37.25293046 18.9453125 37.1953125 C17.94516113 37.19031738 16.94500977 37.18532227 15.91455078 37.18017578 C14.66399902 37.16196777 13.41344727 37.14375977 12.125 37.125 C8.12375 37.08375 4.1225 37.0425 0 37 C0 24.79 0 12.58 0 0 Z " fill="#9E0000" transform="translate(144,364)"/>
</svg>
